<svg width="16" height="16" viewBox="0 0 16 16" fill="none" xmlns="http://www.w3.org/2000/svg">
<path d="M5.31699 11.834H10.6837V10.834H5.31699V11.834ZM5.31699 9.00065H10.6837V8.00065H5.31699V9.00065ZM3.66699 14.6673C3.40033 14.6673 3.16699 14.5673 2.96699 14.3673C2.76699 14.1673 2.66699 13.934 2.66699 13.6673V2.33398C2.66699 2.06732 2.76699 1.83398 2.96699 1.63398C3.16699 1.43398 3.40033 1.33398 3.66699 1.33398H9.68366L13.3337 4.98398V13.6673C13.3337 13.934 13.2337 14.1673 13.0337 14.3673C12.8337 14.5673 12.6003 14.6673 12.3337 14.6673H3.66699ZM9.18366 5.43398H12.3337L9.18366 2.33398V5.43398Z" fill="#9E9E9E"/>
</svg>
